<svg xmlns="http://www.w3.org/2000/svg" width="114.953" height="101.983" viewBox="0 0 114.953 101.983">
  <defs>
    <style>
      .cls-1, .cls-3 {
        fill: #fdb400;
      }

      .cls-2, .cls-5 {
        fill: #fff;
      }

      .cls-3 {
        stroke-linecap: round;
        stroke-linejoin: round;
      }

      .cls-4, .cls-5 {
        stroke: none;
      }
    </style>
  </defs>
  <g id="Group_30" data-name="Group 30" transform="translate(-51.694 -370.888)">
    <g id="Group_28" data-name="Group 28">
      <g id="Group_27" data-name="Group 27">
        <g id="Group_24" data-name="Group 24">
          <path id="Path_39" data-name="Path 39" class="cls-1" d="M125.706,472.371C116.5,472.371,111,466,111,455.316v-1.855a.5.5,0,0,1,.9-.3,10.66,10.66,0,0,0,9.02,4.436,17.142,17.142,0,0,0,3.289-.34.54.54,0,0,1,.1-.009.5.5,0,0,1,.477.35,10.521,10.521,0,0,0,3.409,4.875l.608-.941c-1.386-1.1-5.6-5.22-1.632-12l-.953-.6a11.5,11.5,0,0,0-1.806,6.685.5.5,0,0,1-.4.529,16.153,16.153,0,0,1-3.077.317,9.967,9.967,0,0,1-5.76-1.658,11.676,11.676,0,0,1-4.143-5.737.507.507,0,0,1-.029-.168V426.45a.5.5,0,0,1,.313-.463.487.487,0,0,1,.187-.037.5.5,0,0,1,.358.152c1.85,1.906,4.807,4.292,8.394,4.836a23.362,23.362,0,0,0,3.49.279,13.241,13.241,0,0,0,8.593-2.74.583.583,0,0,1,.362-.126.465.465,0,0,1,.277.084.577.577,0,0,1,.109.1,18.2,18.2,0,0,0,5.5.892,11.572,11.572,0,0,0,5.633-1.32,10.558,10.558,0,0,0,4.957-6.711.5.5,0,0,1,.48-.363.536.536,0,0,1,.148.022,13.561,13.561,0,0,0,3.807.553c.148.005.289.008.43.008a9.982,9.982,0,0,0,7.522-3.2.5.5,0,0,1,.368-.161.493.493,0,0,1,.314.112c2.388,1.935,3.922,5.572,3.91,9.264a11.759,11.759,0,0,1-4.133,9.066c2.01,4.191-1.082,8.307-3.151,10.422a.5.5,0,0,1-.357.151.524.524,0,0,1-.165-.028.5.5,0,0,1-.332-.421,13.189,13.189,0,0,0-1.454-4.875c-1.868-3.5-5.365-5.931-10.395-7.227l-.26,1.093c4.694,1.213,7.941,3.447,9.657,6.647,2.519,4.7.938,10.1.629,11.042a.464.464,0,0,1-.027.145,15.8,15.8,0,0,1-11.942,10.316.594.594,0,0,1-.071.005.5.5,0,0,1-.45-.72,13.731,13.731,0,0,0,1.5-6.758c-.189-3.893-2.246-7.531-6.113-10.812a.5.5,0,0,1-.124-.605,13.846,13.846,0,0,0,1.224-7.426l-1.1.216c.246,2.028.549,9.561-8.036,12.006l.275,1.089a12.186,12.186,0,0,0,6.544-4.151.5.5,0,0,1,.347-.192.382.382,0,0,1,.049,0,.5.5,0,0,1,.328.123c3.461,3.011,5.3,6.3,5.478,9.791a13.033,13.033,0,0,1-1.918,7.2.5.5,0,0,1-.283.227C139.184,468.771,132.3,472.371,125.706,472.371Z"/>
          <path id="Path_40" data-name="Path 40" class="cls-2" d="M161.923,418.751c4.093,3.32,5.975,12.6-.538,17.813,2.155,3.9-.675,7.947-2.879,10.2a13.677,13.677,0,0,0-1.51-5.059c-2-3.745-5.769-6.3-11.205-7.6l-.492,2.066c4.81,1.147,8.113,3.34,9.817,6.517,2.646,4.936.572,10.719.551,10.777l.02.008a15.319,15.319,0,0,1-11.541,9.987,14.333,14.333,0,0,0,1.549-7c-.2-4.043-2.314-7.8-6.288-11.169a14.374,14.374,0,0,0,1.2-8.243l-2.083.411c.075.39,1.733,9.568-8.077,12.049l.52,2.058a12.809,12.809,0,0,0,7.3-4.459c3.354,2.917,5.14,6.088,5.308,9.438a12.737,12.737,0,0,1-1.853,6.928c-.049-.008-.1-.012-.149-.02-2.535,4.869-9.358,8.417-15.866,8.417-7.3,0-14.208-4.469-14.208-16.555v-1.855a11.163,11.163,0,0,0,9.422,4.64,17.6,17.6,0,0,0,3.385-.349,11.01,11.01,0,0,0,4.018,5.444l1.152-1.783c-.266-.174-6.442-4.335-1.624-12.037l-1.8-1.126a12.161,12.161,0,0,0-2.141,7.415,15.474,15.474,0,0,1-2.98.308,9.457,9.457,0,0,1-5.477-1.57,11.134,11.134,0,0,1-3.955-5.493V426.45c2.08,2.144,5.066,4.434,8.676,4.983a23.842,23.842,0,0,0,3.566.284,13.707,13.707,0,0,0,8.909-2.852c.021-.016.039-.034.06-.051l-.04.106a18.433,18.433,0,0,0,5.909,1.007,12.156,12.156,0,0,0,5.875-1.382,11.033,11.033,0,0,0,5.2-7.012,14.031,14.031,0,0,0,3.946.576c.144,0,.289.007.436.007a10.478,10.478,0,0,0,7.892-3.365m0-1a1,1,0,0,0-.736.322,9.482,9.482,0,0,1-7.157,3.043c-.136,0-.27,0-.4-.007a13.159,13.159,0,0,1-3.685-.531.985.985,0,0,0-.294-.045,1,1,0,0,0-.962.725,10.079,10.079,0,0,1-4.716,6.411,11.088,11.088,0,0,1-5.393,1.258,17.635,17.635,0,0,1-5.145-.8,1.1,1.1,0,0,0-.135-.118,1,1,0,0,0-1.211.025l-.064.054a12.759,12.759,0,0,1-8.283,2.632,22.923,22.923,0,0,1-3.416-.273c-3.448-.524-6.313-2.84-8.108-4.69a1,1,0,0,0-1.718.7v22.46a.986.986,0,0,0,.059.336,12.157,12.157,0,0,0,4.33,5.981,10.459,10.459,0,0,0,6.043,1.746,16.584,16.584,0,0,0,3.173-.327,1,1,0,0,0,.8-1.056,10.727,10.727,0,0,1,1.486-5.947l.1.065c-3.484,6.378-.031,10.452,1.644,11.927l-.058.09a9.9,9.9,0,0,1-2.823-4.273,1,1,0,0,0-.954-.7.979.979,0,0,0-.193.019,16.71,16.71,0,0,1-3.193.33,10.161,10.161,0,0,1-8.617-4.233,1,1,0,0,0-1.805.593v1.855c0,10.992,5.685,17.555,15.208,17.555,6.821,0,13.68-3.571,16.53-8.548a.968.968,0,0,0,.351-.348,13.52,13.52,0,0,0,1.985-7.479c-.182-3.627-2.083-7.04-5.65-10.143a1,1,0,0,0-.656-.245c-.033,0-.065,0-.1,0a1,1,0,0,0-.693.384,11.484,11.484,0,0,1-5.792,3.828l-.031-.119c7.926-2.51,8.18-9.359,7.976-11.944l.1-.021a13.177,13.177,0,0,1-1.221,6.6,1,1,0,0,0,.248,1.21c3.757,3.188,5.754,6.705,5.936,10.455a13.263,13.263,0,0,1-1.448,6.514,1,1,0,0,0,.9,1.44.961.961,0,0,0,.142-.01,16.318,16.318,0,0,0,12.343-10.645,1,1,0,0,0,.052-.224c.373-1.174,1.867-6.607-.685-11.365-1.725-3.218-4.918-5.492-9.5-6.768l.029-.12c4.624,1.288,7.846,3.588,9.586,6.847a12.674,12.674,0,0,1,1.4,4.691,1,1,0,0,0,1.71.6c3.513-3.593,4.721-7.422,3.4-10.639a12.252,12.252,0,0,0,4.028-9.2c.013-3.837-1.594-7.627-4.094-9.655a1,1,0,0,0-.629-.223Z"/>
        </g>
        <g id="Group_25" data-name="Group 25">
          <path id="Path_41" data-name="Path 41" class="cls-1" d="M123.731,430.093a22.158,22.158,0,0,1-3.313-.265c-4.242-.644-7.654-4.219-9.311-6.292a.5.5,0,0,1-.109-.312V393.469a.5.5,0,0,1,.4-.491,22.114,22.114,0,0,1,4.177-.434,11.122,11.122,0,0,1,7.433,2.414c3.705,3.15,4.132,8.5,4.143,10.654a.5.5,0,0,1-.359.483,10.557,10.557,0,0,0-4.822,3.155l.912.643a8.472,8.472,0,0,1,6.351-3.02,10.629,10.629,0,0,1,5.7,1.875l.634-.928a11.7,11.7,0,0,0-6.3-2.083c-.158,0-.314.005-.467.013h-.027a.5.5,0,0,1-.341-.133.507.507,0,0,1-.159-.356,18.16,18.16,0,0,0-1.751-7.553.5.5,0,0,1,.2-.659,15.466,15.466,0,0,0,7.023-8.054,14,14,0,0,0-.562-9.766.5.5,0,0,1,.364-.673,10.34,10.34,0,0,1,2.067-.21c6.076,0,11.316,5.319,11.885,9.975a.429.429,0,0,1,.069.206.441.441,0,0,1-.014.136c.866,4.222,1.256,7-.31,9.6-2.177,3.612-6.728,4.671-8.234,4.929l.112,1.123c1.6-.255,6.6-1.362,9.075-5.46,1.591-2.631,1.806-5.975.64-9.937a.5.5,0,0,1,.593-.628,12.273,12.273,0,0,1,7.555,5.878,13.487,13.487,0,0,1,1.6,9.935c2.785,1.012,4.371,4.076,4.266,8.317a10.138,10.138,0,0,1-.362,2.092,8.008,8.008,0,0,1-4.181,4.981,9.007,9.007,0,0,1-4.279.994,13.7,13.7,0,0,1-4.883-.944l-.789-.343a7.394,7.394,0,0,1-1.732-1.365,9.961,9.961,0,0,1-2.291-6.546l-1.125-.1a11.017,11.017,0,0,0,2.577,7.39,8.494,8.494,0,0,0,2.129,1.677.5.5,0,0,1,.238.566,9.614,9.614,0,0,1-4.478,6.292,10.44,10.44,0,0,1-5.085,1.18,17.256,17.256,0,0,1-4.41-.608.5.5,0,0,1-.255-.8,14.364,14.364,0,0,0,3-7.1l-1.125-.063a12.565,12.565,0,0,1-4.2,7.9A12.175,12.175,0,0,1,123.731,430.093Z"/>
          <path id="Path_42" data-name="Path 42" class="cls-2" d="M135.617,378.846c5.945,0,10.994,5.4,11.406,9.708-.031,0-.061.005-.041.005h.041c.917,4.443,1.243,7.043-.206,9.449-2.481,4.118-8.291,4.756-8.35,4.762l.21,2.113c.281-.028,6.91-.737,9.95-5.766,1.673-2.767,1.9-6.237.691-10.337,5.9,1.368,10.632,8.671,8.671,15.66,3.38.907,4.452,4.6,4.369,7.971a9.493,9.493,0,0,1-.343,1.964,7.526,7.526,0,0,1-3.934,4.68,8.559,8.559,0,0,1-4.045.935,13.324,13.324,0,0,1-4.687-.9l-.785-.342A6.832,6.832,0,0,1,147,417.5c-2.446-2.656-2.149-6.626-2.146-6.665l-2.115-.182c-.017.2-.391,4.912,2.685,8.269a8.972,8.972,0,0,0,2.254,1.776,9.131,9.131,0,0,1-4.238,5.984A10.018,10.018,0,0,1,138.6,427.8a16.918,16.918,0,0,1-4.28-.59,14.825,14.825,0,0,0,3.162-7.891l-2.119-.119c0,.049-.341,5.02-4.066,8.033a11.669,11.669,0,0,1-7.561,2.362,21.61,21.61,0,0,1-3.239-.259c-4-.608-7.249-3.924-8.995-6.11V393.469a21.569,21.569,0,0,1,4.083-.425,10.615,10.615,0,0,1,7.108,2.294c3.61,3.071,3.957,8.467,3.967,10.277a11.058,11.058,0,0,0-5.406,3.735l1.735,1.223a8.108,8.108,0,0,1,6.253-3.2,10.349,10.349,0,0,1,5.84,2.064l1.2-1.753a12.375,12.375,0,0,0-7-2.447c-.167,0-.332.005-.494.013a18.682,18.682,0,0,0-1.805-7.767,15.973,15.973,0,0,0,7.246-8.328,14.452,14.452,0,0,0-.57-10.109,9.772,9.772,0,0,1,1.967-.2m11.451,9.706c.009,0,0,0-.045.006v0l.045,0m-11.451-10.706a10.82,10.82,0,0,0-2.168.22,1,1,0,0,0-.73,1.346,13.508,13.508,0,0,1,.554,9.423,14.961,14.961,0,0,1-6.8,7.781,1,1,0,0,0-.393,1.317,17.69,17.69,0,0,1,1.7,7.338,1,1,0,0,0,1,.979h.052c.146-.008.293-.012.442-.012a10.91,10.91,0,0,1,5.6,1.732l-.07.1a10.855,10.855,0,0,0-5.562-1.7,8.9,8.9,0,0,0-6.425,2.856l-.083-.059a9.987,9.987,0,0,1,4.208-2.6,1,1,0,0,0,.718-.965c-.012-2.222-.457-7.747-4.319-11.032a11.6,11.6,0,0,0-7.756-2.533,22.622,22.622,0,0,0-4.273.443,1,1,0,0,0-.81.982v29.755a1,1,0,0,0,.219.624c2.079,2.6,5.436,5.838,9.626,6.474a22.64,22.64,0,0,0,3.389.271,12.658,12.658,0,0,0,8.19-2.584,12.952,12.952,0,0,0,4.305-7.761l.13.007a13.667,13.667,0,0,1-2.811,6.315,1,1,0,0,0,.51,1.6,17.811,17.811,0,0,0,4.54.625,10.928,10.928,0,0,0,5.326-1.242,10.1,10.1,0,0,0,4.722-6.6,1,1,0,0,0-.478-1.133,8.019,8.019,0,0,1-2.005-1.578,10.391,10.391,0,0,1-2.433-6.506l.123.011a10.254,10.254,0,0,0,2.413,6.426,7.866,7.866,0,0,0,1.792,1.429,1.011,1.011,0,0,0,.109.055l.784.342a14.14,14.14,0,0,0,5.087.987,9.5,9.5,0,0,0,4.515-1.053,8.477,8.477,0,0,0,4.424-5.282,10.471,10.471,0,0,0,.38-2.171c.108-4.308-1.44-7.458-4.184-8.683a14.033,14.033,0,0,0-1.754-9.884,12.771,12.771,0,0,0-7.873-6.111.968.968,0,0,0-.226-.026,1,1,0,0,0-.959,1.282c1.125,3.822.928,7.031-.588,9.538-2.15,3.556-6.3,4.757-8.2,5.132l-.013-.129c1.892-.385,6.021-1.6,8.119-5.079,1.642-2.728,1.242-5.7.39-9.865a.8.8,0,0,0,.006-.155,1,1,0,0,0-.09-.367c-.672-4.832-6.09-10.29-12.363-10.29Z"/>
        </g>
        <g id="Group_26" data-name="Group 26">
          <path id="Path_43" data-name="Path 43" class="cls-1" d="M125.862,396.165a.5.5,0,0,1-.4-.2,10.96,10.96,0,0,0-1.708-1.85,12.186,12.186,0,0,0-8.156-2.686,22.889,22.889,0,0,0-4.009.381.522.522,0,0,1-.088.007.5.5,0,0,1-.5-.5v-7.749c0-7.51,3.743-12.176,9.77-12.176,6.128,0,9.524,4.72,10.418,6.166,2.1,4.068,2.6,7.779,1.5,11.065-1.332,3.971-4.691,6.39-6.576,7.479A.489.489,0,0,1,125.862,396.165Z"/>
          <path id="Path_44" data-name="Path 44" class="cls-2" d="M120.768,371.888c4.94,0,8.364,3.3,9.993,5.929,2.021,3.909,2.513,7.485,1.454,10.643-1.291,3.849-4.6,6.2-6.353,7.205a11.3,11.3,0,0,0-1.787-1.934,12.635,12.635,0,0,0-8.48-2.806,23.318,23.318,0,0,0-4.1.388v-7.749c0-6.581,3.043-11.676,9.27-11.676m0-1c-6.335,0-10.27,4.857-10.27,12.676v7.749a1,1,0,0,0,1,1,1.056,1.056,0,0,0,.177-.015,22.346,22.346,0,0,1,3.92-.373,11.7,11.7,0,0,1,7.831,2.566,10.4,10.4,0,0,1,1.63,1.766,1,1,0,0,0,1.306.274c1.946-1.124,5.416-3.626,6.8-7.753,1.146-3.418.637-7.261-1.514-11.42-.011-.022-.024-.045-.037-.067-.929-1.5-4.457-6.4-10.844-6.4Z"/>
        </g>
      </g>
    </g>
    <g id="Group_29" data-name="Group 29">
      <g id="Path_45" data-name="Path 45" class="cls-3">
        <path class="cls-4" d="M 73.76004791259766 424.0653686523438 L 73.69015502929688 423.6242370605469 C 73.52891540527344 422.6065979003906 73.16234588623047 421.5909729003906 72.60062408447266 420.6056213378906 C 71.17926025390625 418.11181640625 68.74527740478516 416.2950134277344 66.08970642089844 415.7456359863281 C 65.27375030517578 415.5768432617188 64.41131591796875 415.4912414550781 63.5263557434082 415.4912414550781 C 61.43058776855469 415.4912414550781 59.18470764160156 415.9569091796875 56.85109710693359 416.8752746582031 L 56.36930847167969 417.0648803710938 L 56.19662857055664 416.5767517089844 C 55.74159622192383 415.29052734375 55.48012924194336 413.6458129882813 55.47927856445313 412.0643920898438 C 55.47828674316406 410.2223205566406 55.81606674194336 408.5453186035156 56.45612716674805 407.2146301269531 C 57.20719909667969 405.6531677246094 58.3389778137207 404.6007385253906 59.82003784179688 404.0866394042969 L 59.93301773071289 404.0474243164063 L 60.05151748657227 404.0635681152344 C 60.75465774536133 404.159423828125 61.44318771362305 404.2080078125 62.09799575805664 404.2080078125 C 63.31012725830078 404.2080078125 64.51271820068359 404.0527648925781 65.67237091064453 403.74658203125 C 69.80234527587891 402.6553649902344 72.29899597167969 399.1949462890625 73.41962432861328 397.2293395996094 L 73.66954040527344 396.791015625 L 74.10557556152344 397.0448913574219 C 76.55432891845703 398.4706115722656 78.93991088867188 399.1934509277344 81.19603729248047 399.193359375 C 82.20682525634766 399.1933288574219 83.20883941650391 399.0474853515625 84.17422485351563 398.7598266601563 C 84.81497955322266 398.5680541992188 85.45328521728516 398.308349609375 86.07083892822266 397.9881286621094 L 86.47921752929688 397.7763671875 L 86.72420501708984 398.1657104492188 C 87.94865417480469 400.1117858886719 88.70866394042969 401.9044494628906 89.04766845703125 403.6462097167969 C 89.38958740234375 405.4029235839844 89.30635070800781 407.1169738769531 88.79322052001953 408.8862609863281 C 88.46000671386719 410.0347595214844 87.49412536621094 411.1929626464844 86.07347869873047 412.1475219726563 C 84.795654296875 413.006103515625 83.26509094238281 413.6265258789063 81.87420654296875 413.8496704101563 L 81.1383056640625 413.9671325683594 L 81.45381927490234 414.6409606933594 C 82.52072906494141 416.9193420410156 82.48664855957031 419.0221557617188 81.35523986816406 420.7220458984375 C 80.06454467773438 422.6612548828125 77.39202880859375 423.9036560058594 74.20623779296875 424.0455017089844 L 73.76004791259766 424.0653686523438 Z"/>
        <path class="cls-5" d="M 74.18399810791016 423.5459899902344 C 77.19400024414063 423.4119873046875 79.72299957275391 422.2720031738281 80.93901062011719 420.4450073242188 C 81.96800994873047 418.8989868164063 81.98999786376953 416.9649963378906 81.00099945068359 414.8529968261719 L 80.40399932861328 413.5780029296875 L 81.79499816894531 413.3559875488281 C 84.41899871826172 412.9349975585938 87.66399383544922 410.9840087890625 88.31301116943359 408.7470092773438 C 89.28399658203125 405.3989868164063 88.66300964355469 402.1860046386719 86.30101013183594 398.4320068359375 C 85.68199920654297 398.7529907226563 85.02201080322266 399.0280151367188 84.31700134277344 399.239013671875 C 83.29982757568359 399.5420837402344 82.25839233398438 399.6933288574219 81.19605255126953 399.6933898925781 C 78.84423828125 399.6934814453125 76.38825225830078 398.9524841308594 73.85399627685547 397.4769897460938 C 72.78899383544922 399.3450012207031 70.17900085449219 403.072998046875 65.80001068115234 404.2300109863281 C 64.55400085449219 404.5589904785156 63.31599807739258 404.7080078125 62.09799575805664 404.7080078125 C 61.3859977722168 404.7080078125 60.68099594116211 404.6539916992188 59.9839973449707 404.5589904785156 C 55.48699951171875 406.1199951171875 55.43299865722656 412.9190063476563 56.66799926757813 416.4100036621094 C 58.55482864379883 415.6674499511719 60.97425842285156 414.9912414550781 63.5263557434082 414.9912414550781 C 64.40441131591797 414.9912414550781 65.29762268066406 415.0711975097656 66.19099426269531 415.2560119628906 C 68.98500061035156 415.8340148925781 71.54399871826172 417.7420043945313 73.03501129150391 420.3580017089844 C 73.63301086425781 421.4070129394531 74.01699829101563 422.4920043945313 74.18399810791016 423.5459899902344 M 74.18344116210938 424.5460205078125 C 73.69412994384766 424.5460205078125 73.27358245849609 424.1901245117188 73.19631958007813 423.7024841308594 C 73.04454803466797 422.74462890625 72.69799041748047 421.7860107421875 72.166259765625 420.8532409667969 C 70.81491851806641 418.4822998046875 68.50545501708984 416.7559814453125 65.98841857910156 416.2352905273438 C 65.20568084716797 416.0733337402344 64.37732696533203 415.9912414550781 63.5263557434082 415.9912414550781 C 61.4935188293457 415.9912414550781 59.30923843383789 416.4452209472656 57.03420639038086 417.3405456542969 C 56.91638946533203 417.3869018554688 56.79211044311523 417.4100036621094 56.66800308227539 417.4100036621094 C 56.52620697021484 417.4100036621094 56.3846321105957 417.3798522949219 56.25301742553711 417.31982421875 C 56.00620651245117 417.207275390625 55.81572723388672 416.999267578125 55.72524642944336 416.7434997558594 C 54.82566833496094 414.2006530761719 54.52966690063477 410.0662536621094 56.00553894042969 406.9978942871094 C 56.80500793457031 405.3358154296875 58.06733703613281 404.165771484375 59.65606689453125 403.6142883300781 C 59.7618293762207 403.5775756835938 59.8726921081543 403.5589904785156 59.98400497436523 403.5589904785156 C 60.02904891967773 403.5589904785156 60.07416152954102 403.5620422363281 60.11904907226563 403.5681457519531 C 60.79988861083984 403.6609497070313 61.4656982421875 403.7080078125 62.09799575805664 403.7080078125 C 63.26706695556641 403.7080078125 64.42671966552734 403.558349609375 65.54473114013672 403.2631530761719 C 69.49819946289063 402.2185668945313 71.90342712402344 398.8792419433594 72.98526763916016 396.981689453125 C 73.11740875244141 396.7499389648438 73.33667755126953 396.5805969238281 73.59431457519531 396.5112915039063 C 73.67973327636719 396.4883422851563 73.76704406738281 396.4769897460938 73.85396575927734 396.4769897460938 C 74.02923583984375 396.4769897460938 74.20302581787109 396.5230712890625 74.35714721679688 396.61279296875 C 76.72850799560547 397.9934692382813 79.02943420410156 398.6934509277344 81.19601440429688 398.693359375 C 82.158447265625 398.6933288574219 83.1124267578125 398.5544738769531 84.03144836425781 398.2806396484375 C 84.64171600341797 398.0979919433594 85.25081634521484 397.8501281738281 85.84066772460938 397.5442504882813 C 85.98736572265625 397.4682006835938 86.14488220214844 397.431884765625 86.30031585693359 397.431884765625 C 86.63405609130859 397.431884765625 86.95845031738281 397.5991516113281 87.14740753173828 397.8994445800781 C 88.40532684326172 399.8987121582031 89.18744659423828 401.7472534179688 89.53845977783203 403.5506896972656 C 89.89591979980469 405.3872680664063 89.80922698974609 407.1781005859375 89.27342987060547 409.0255432128906 C 88.49466705322266 411.7098083496094 84.86744689941406 413.8758239746094 81.95340728759766 414.3433532714844 L 81.87259674072266 414.3562622070313 L 81.90663909912109 414.428955078125 C 82.46302032470703 415.6170959472656 82.73892974853516 416.775634765625 82.7266845703125 417.8724060058594 C 82.71395111083984 419.0139465332031 82.39257049560547 420.06591796875 81.77147674560547 420.9990844726563 C 81.07396697998047 422.0470581054688 79.99448394775391 422.9256896972656 78.64975738525391 423.5399780273438 C 77.3673095703125 424.1257934570313 75.83845520019531 424.4733276367188 74.22847747802734 424.5450134277344 C 74.21343231201172 424.5456848144531 74.19837188720703 424.5460205078125 74.18344116210938 424.5460205078125 Z"/>
      </g>
      <g id="Path_46" data-name="Path 46" class="cls-3">
        <path class="cls-4" d="M 88.37457275390625 434.3442077636719 L 87.9166259765625 433.1592407226563 C 86.13724517822266 428.5550537109375 82.71544647216797 426.0044250488281 77.74627685546875 425.5781555175781 L 77.64022827148438 424.6026306152344 C 79.68797302246094 423.9644165039063 81.29573822021484 422.8372802734375 82.28970336914063 421.3430480957031 C 83.15533447265625 420.0432434082031 83.49545288085938 418.4818725585938 83.2734375 416.8274841308594 L 83.12898254394531 415.7510986328125 L 84.04068756103516 416.3412475585938 C 87.40393829345703 418.5181884765625 90.47581481933594 419.6220092773438 93.17099761962891 419.6220092773438 C 94.18840789794922 419.6220092773438 95.16687774658203 419.4638366699219 96.07923126220703 419.1518859863281 C 99.89385223388672 417.8480529785156 101.5759887695313 414.2323303222656 102.0719604492188 412.9244995117188 L 100.9891357421875 412.6048583984375 C 100.5132217407227 413.8095397949219 98.97962951660156 416.9830932617188 95.69750213623047 418.0955505371094 C 94.90616607666016 418.3641052246094 94.05298614501953 418.5003051757813 93.16185760498047 418.5003051757813 C 90.60215759277344 418.5003051757813 87.62352752685547 417.3801879882813 84.3087158203125 415.1710815429688 L 83.51911163330078 414.6448669433594 L 84.39956665039063 414.2910766601563 C 86.58550262451172 413.4126586914063 89.17071533203125 411.6136474609375 89.87076568603516 409.1987915039063 C 90.96351623535156 405.432373046875 90.2451171875 401.6277465820313 87.67455291748047 397.5674438476563 L 87.42745208740234 397.1771545410156 L 87.79700469970703 396.8999938964844 C 89.92020416259766 395.3076171875 91.35232543945313 393.2624816894531 92.17983245849609 391.8272399902344 L 92.50449371337891 391.26416015625 L 92.96548461914063 391.7223815917969 C 93.59174346923828 392.3448791503906 94.29715728759766 392.846435546875 95.0621337890625 393.213134765625 C 96.11911773681641 393.7185974121094 97.29981231689453 393.9750061035156 98.57100677490234 393.9750061035156 C 100.2939682006836 393.9750061035156 101.7547836303711 393.5082702636719 102.4655380249023 393.2334594726563 L 101.9769287109375 392.2163696289063 C 101.3201293945313 392.4604797363281 100.0430297851563 392.8488159179688 98.56522369384766 392.8488159179688 C 97.45566558837891 392.8488159179688 96.43478393554688 392.6279602050781 95.53095245361328 392.1924438476563 C 93.40580749511719 391.1681213378906 91.89349365234375 388.9646911621094 91.03146362304688 385.6391296386719 L 89.93821716308594 385.8940734863281 C 90.34825897216797 387.4804077148438 90.90924835205078 388.8569946289063 91.60863494873047 389.9916381835938 L 91.75550842285156 390.2299194335938 L 91.62915802001953 390.4797058105469 C 90.94529724121094 391.83154296875 88.36255645751953 396.3464660644531 83.84013366699219 397.6873779296875 C 82.99219512939453 397.9385986328125 82.10688781738281 398.0659790039063 81.20868682861328 398.0659790039063 C 78.86170196533203 398.0659790039063 76.35011291503906 397.2032165527344 73.74367523193359 395.5016784667969 L 73.18952941894531 395.1416015625 L 72.92255401611328 395.7475891113281 L 72.92159271240234 395.749755859375 L 72.92037200927734 395.7524719238281 C 72.81732177734375 395.9804382324219 70.33978271484375 401.3511047363281 65.38576507568359 402.660400390625 C 64.35052490234375 402.9345092773438 63.26729202270508 403.0735168457031 62.16671371459961 403.0735168457031 C 62.16657638549805 403.0735168457031 62.16661071777344 403.0735168457031 62.16647338867188 403.0735168457031 C 61.42625427246094 403.0735168457031 60.66082382202148 403.0106201171875 59.89144515991211 402.8866271972656 L 59.51233291625977 402.8255310058594 L 59.47356414794922 402.4434814453125 C 59.27871322631836 400.5238952636719 59.51511383056641 398.5935363769531 60.17620468139648 396.7061157226563 C 60.79480361938477 394.9399719238281 61.77909469604492 393.2790222167969 63.02266311645508 391.90283203125 C 64.10039520263672 390.7101745605469 65.32518768310547 389.7676391601563 66.66299438476563 389.1014404296875 C 68.06857299804688 388.4015197753906 69.52300262451172 388.0466003417969 70.98589324951172 388.0466003417969 C 71.10387420654297 388.0466003417969 71.22232818603516 388.0490112304688 71.34072875976563 388.0537414550781 C 71.52362060546875 385.9644165039063 72.75543975830078 383.65869140625 74.71403503417969 381.7817077636719 C 75.78400421142578 380.75634765625 77.03828430175781 379.9057006835938 78.34127807617188 379.3217468261719 C 79.78555297851563 378.6744689941406 81.27544403076172 378.3462829589844 82.76955413818359 378.3462829589844 C 83.99899291992188 378.3462829589844 85.21495819091797 378.571533203125 86.39120483398438 379.0164794921875 C 87.56171417236328 376.2353515625 91.41686248779297 371.3880004882813 97.57499694824219 371.3880004882813 C 100.6814575195313 371.3880004882813 103.2309265136719 372.6239318847656 104.9477844238281 374.9621887207031 C 106.5160522460938 377.0981140136719 107.3450012207031 380.0725708007813 107.3450012207031 383.5639953613281 L 107.3450012207031 426.7109985351563 L 107.3450012207031 427.5184326171875 L 106.622184753418 427.1585998535156 C 104.5321578979492 426.1181945800781 102.3855438232422 425.5906677246094 100.2419509887695 425.5906677246094 C 98.55188751220703 425.5906677246094 96.90796661376953 425.9236755371094 95.35585784912109 426.5804748535156 C 92.39387512207031 427.8343811035156 90.02151489257813 430.2343444824219 88.84712219238281 433.1649780273438 L 88.37457275390625 434.3442077636719 Z"/>
        <path class="cls-5" d="M 97.57499694824219 371.8880004882813 C 91.34799194335938 371.8880004882813 87.52700805664063 377.1239929199219 86.677001953125 379.6719970703125 C 85.35726928710938 379.0992431640625 84.04129028320313 378.8462829589844 82.76956176757813 378.8462829589844 C 76.81411743164063 378.8462829589844 71.81700134277344 384.3895568847656 71.81700134277344 388.5880126953125 C 71.53944396972656 388.5602416992188 71.26162719726563 388.546630859375 70.98590087890625 388.5466003417969 C 64.826416015625 388.5459289550781 59.25312805175781 395.3205871582031 59.97099304199219 402.3930053710938 C 60.69577026367188 402.5098266601563 61.42880249023438 402.5735168457031 62.16647338867188 402.5735168457031 C 63.19061279296875 402.5735168457031 64.223876953125 402.4508056640625 65.25800323486328 402.177001953125 C 70.052001953125 400.9100036621094 72.44100189208984 395.5989990234375 72.46499633789063 395.5459899902344 L 72.96900177001953 394.4020080566406 L 74.01699829101563 395.0830078125 C 76.54853057861328 396.7356567382813 78.95757293701172 397.5659790039063 81.20867919921875 397.5659790039063 C 82.06186676025391 397.5659790039063 82.89188385009766 397.4468383789063 83.697998046875 397.2080078125 C 88.06900787353516 395.9119873046875 90.58100128173828 391.4440002441406 91.18299102783203 390.2539978027344 C 90.38600158691406 388.9609985351563 89.7659912109375 387.3840026855469 89.33200836181641 385.5220031738281 L 91.39900207519531 385.0400085449219 C 92.20099639892578 388.4830017089844 93.66500854492188 390.7380065917969 95.74800109863281 391.7420043945313 C 96.68402099609375 392.1930541992188 97.66184997558594 392.3488159179688 98.56522369384766 392.3488159179688 C 100.56396484375 392.3488159179688 102.1998977661133 391.5870361328125 102.2239990234375 391.5759887695313 L 103.1429901123047 393.489013671875 C 103.0230102539063 393.5469970703125 101.0540084838867 394.4750061035156 98.57099151611328 394.4750061035156 C 97.39700317382813 394.4750061035156 96.10900115966797 394.2680053710938 94.84600830078125 393.6640014648438 C 94.02200317382813 393.2690124511719 93.27799224853516 392.7380065917969 92.61299133300781 392.0769958496094 C 91.83000183105469 393.4349975585938 90.34100341796875 395.6170043945313 88.09700775146484 397.2999877929688 C 89.93299102783203 400.2000122070313 91.7969970703125 404.35400390625 90.35099792480469 409.3380126953125 C 89.65699768066406 411.7319946289063 87.18900299072266 413.7090148925781 84.58599853515625 414.7550048828125 C 87.82453155517578 416.9132690429688 90.69619750976563 418.0003051757813 93.16185760498047 418.0003051757813 C 94.00122833251953 418.0003051757813 94.79313659667969 417.8744506835938 95.53700256347656 417.6220092773438 C 99.33999633789063 416.3330078125 100.6659927368164 412.0360107421875 100.6790084838867 411.9920043945313 L 102.7149963378906 412.5929870605469 C 102.6500091552734 412.81298828125 101.0859985351563 417.968994140625 96.24099731445313 419.625 C 95.26999664306641 419.9570007324219 94.24600219726563 420.1220092773438 93.17099761962891 420.1220092773438 C 90.37100219726563 420.1220092773438 87.22499847412109 418.9979858398438 83.76899719238281 416.760986328125 C 84.00599670410156 418.5270080566406 83.65499114990234 420.1950073242188 82.70600128173828 421.6199951171875 C 81.63500213623047 423.2300109863281 79.91300201416016 424.4179992675781 77.78900146484375 425.0799865722656 C 81.64800262451172 425.4110107421875 86.13800811767578 427.1700134277344 88.38300323486328 432.97900390625 C 89.59400177001953 429.9570007324219 92.02400207519531 427.447998046875 95.16100311279297 426.1199951171875 C 96.79018402099609 425.4306030273438 98.50446319580078 425.0907287597656 100.2419586181641 425.0906677246094 C 102.4461898803711 425.090576171875 104.6881484985352 425.6373291015625 106.8450012207031 426.7109985351563 L 106.8450012207031 383.5639953613281 C 106.8450012207031 376.9830017089844 103.8010101318359 371.8880004882813 97.57499694824219 371.8880004882813 M 97.57499694824219 370.8880004882813 C 100.8470840454102 370.8880004882813 103.5359191894531 372.1945190429688 105.3507995605469 374.6662902832031 C 106.9825286865234 376.8885803222656 107.8450012207031 379.9653625488281 107.8450012207031 383.5639953613281 L 107.8450012207031 426.7109985351563 C 107.8450012207031 427.0572509765625 107.6658782958984 427.37890625 107.3714904785156 427.5611877441406 C 107.2107391357422 427.6607360839844 107.0281066894531 427.7109985351563 106.8449630737305 427.7109985351563 C 106.6926956176758 427.7109985351563 106.5400848388672 427.67626953125 106.3993682861328 427.606201171875 C 104.3789825439453 426.6004638671875 102.3073425292969 426.090576171875 100.2420043945313 426.0906677246094 C 98.61904144287109 426.0907287597656 97.04066467285156 426.4104309082031 95.55070495605469 427.0409240722656 C 92.71066284179688 428.2432250976563 90.43641662597656 430.5431518554688 89.31124114990234 433.3509826660156 C 89.15917205810547 433.73046875 88.79148864746094 433.97900390625 88.38306427001953 433.97900390625 C 88.3809814453125 433.97900390625 88.37891387939453 433.97900390625 88.3768310546875 433.9789733886719 C 87.96591186523438 433.9764404296875 87.59837341308594 433.7227783203125 87.45024108886719 433.3394775390625 C 85.74554443359375 428.9285583496094 82.46628570556641 426.4848937988281 77.70353698730469 426.0763244628906 C 77.22727203369141 426.0354614257813 76.84651184082031 425.6632690429688 76.79486846923828 425.1880493164063 C 76.74320220947266 424.7128295898438 77.03509521484375 424.2675170898438 77.491455078125 424.1252746582031 C 79.42843627929688 423.5215759277344 80.94368743896484 422.4637451171875 81.87339782714844 421.0661315917969 C 82.68221282958984 419.8516235351563 82.98643493652344 418.4480590820313 82.77787780761719 416.8939819335938 C 82.7259521484375 416.5070495605469 82.90394592285156 416.1253051757813 83.23368835449219 415.9163208007813 C 83.39714813232422 415.8127136230469 83.58309936523438 415.760986328125 83.76898193359375 415.760986328125 C 83.95807647705078 415.760986328125 84.14710998535156 415.8145141601563 84.3123779296875 415.9214782714844 C 87.59334564208984 418.0451965332031 90.57381439208984 419.1220092773438 93.17099761962891 419.1220092773438 C 94.13325500488281 419.1220092773438 95.05729675292969 418.972900390625 95.91746520996094 418.6787719726563 C 99.13112640380859 417.5803527832031 100.7505416870117 414.7387390136719 101.4012985229492 413.2478637695313 L 101.2745208740234 413.21044921875 C 100.6144027709961 414.6892395019531 98.98826599121094 417.5081176757813 95.85801696777344 418.569091796875 C 95.01499176025391 418.8551635742188 94.10776519775391 419.0003051757813 93.161865234375 419.0003051757813 C 90.50172424316406 419.0003051757813 87.42980194091797 417.8519287109375 84.03142547607422 415.5871276855469 C 83.72261810302734 415.38134765625 83.55317687988281 415.0214538574219 83.59128570556641 414.6523132324219 C 83.62939453125 414.2831726074219 83.86879730224609 413.9654846191406 84.213134765625 413.8271179199219 C 86.82269287109375 412.7785034179688 88.85494232177734 410.9071350097656 89.39053344726563 409.0595703125 C 90.45565795898438 405.3883666992188 89.77613830566406 401.8217163085938 87.25209808349609 397.8348999023438 C 86.97306823730469 397.3941650390625 87.07969665527344 396.8129577636719 87.49700164794922 396.5 C 89.66082763671875 394.8771362304688 91.08833312988281 392.7192993164063 91.74667358398438 391.5775146484375 C 91.90175628662109 391.3085327148438 92.17295837402344 391.1268615722656 92.48068237304688 391.0857849121094 C 92.52486419677734 391.0798950195313 92.56907653808594 391.0769958496094 92.61305236816406 391.0769958496094 C 92.87541198730469 391.0769653320313 93.12939453125 391.1802978515625 93.31797790527344 391.3677673339844 C 93.90437316894531 391.9506530761719 94.56391143798828 392.4198303222656 95.27826690673828 392.7622375488281 C 96.26694488525391 393.2350769042969 97.37505340576172 393.4750061035156 98.57099151611328 393.4750061035156 C 99.86262512207031 393.4750061035156 101.0146636962891 393.1924133300781 101.7728958129883 392.9463500976563 L 101.7188339233398 392.8338012695313 C 100.9693756103516 393.0746154785156 99.83677673339844 393.3488159179688 98.56522369384766 393.3488159179688 C 97.3798828125 393.3488159179688 96.28597259521484 393.1112976074219 95.31389617919922 392.6428527832031 C 93.15418243408203 391.6018981933594 91.59661865234375 389.4485473632813 90.67586517333984 386.2354736328125 L 90.55703735351563 386.26318359375 C 90.93901824951172 387.5932312011719 91.43426513671875 388.755859375 92.03426361083984 389.7292785644531 C 92.21677398681641 390.0253601074219 92.23232269287109 390.39501953125 92.0753173828125 390.7053833007813 C 91.36863708496094 392.1023559570313 88.69652557373047 396.7689514160156 83.98226165771484 398.166748046875 C 83.08809661865234 398.4316711425781 82.15499114990234 398.5659790039063 81.20868682861328 398.5659790039063 C 78.76300811767578 398.5659790039063 76.15945434570313 397.6758728027344 73.47035217285156 395.9203796386719 L 73.41006469726563 395.8811950683594 L 73.38011169433594 395.9491577148438 C 73.37877655029297 395.9522094726563 73.37741851806641 395.9552612304688 73.37604522705078 395.9582824707031 C 73.30667114257813 396.1117553710938 72.66287231445313 397.5013427734375 71.41938781738281 399.0455322265625 C 69.72124481201172 401.1543273925781 67.67903137207031 402.5715026855469 65.51352691650391 403.143798828125 C 64.43671417236328 403.4288940429688 63.31045532226563 403.5735168457031 62.16647338867188 403.5735168457031 C 61.39975738525391 403.5735168457031 60.60755157470703 403.5085144042969 59.81187438964844 403.3802490234375 C 59.36472320556641 403.3081970214844 59.02184295654297 402.944580078125 58.97610473632813 402.4939880371094 C 58.7738037109375 400.5009155273438 59.01881408691406 398.4979553222656 59.70431518554688 396.540771484375 C 60.34473419189453 394.7123413085938 61.36392211914063 392.9925842285156 62.65170288085938 391.5674438476563 C 63.77141571044922 390.3282775878906 65.04588317871094 389.3480224609375 66.439697265625 388.6539001464844 C 67.88758087158203 387.9328308105469 69.38739013671875 387.5606079101563 70.89911651611328 387.5469970703125 C 71.22000885009766 385.4668884277344 72.46630096435547 383.2432556152344 74.36808776855469 381.4207458496094 C 75.47894287109375 380.3561706542969 76.78214263916016 379.4725646972656 78.13680267333984 378.8654479980469 C 79.64582824707031 378.1891784667969 81.20450592041016 377.8462829589844 82.76956176757813 377.8462829589844 C 83.90567779541016 377.8462829589844 85.03008270263672 378.029296875 86.12418365478516 378.3914184570313 C 86.74024200439453 377.1063842773438 87.83644104003906 375.5001831054688 89.44706726074219 374.0754699707031 C 91.09093475341797 372.6213684082031 93.83545684814453 370.8880004882813 97.57499694824219 370.8880004882813 Z"/>
      </g>
      <g id="Path_47" data-name="Path 47" class="cls-3">
        <path class="cls-4" d="M 92.63812255859375 472.3707275390625 C 92.63761901855469 472.3707275390625 92.63738250732422 472.3707275390625 92.63687896728516 472.3707275390625 C 89.39437866210938 472.3705139160156 85.96507263183594 471.5036926269531 82.98067474365234 469.929931640625 C 80.08819580078125 468.4046630859375 77.80065155029297 466.3091735839844 76.49897766113281 464.0011596679688 C 76.1739501953125 464.0423583984375 75.8363037109375 464.0631713867188 75.49088287353516 464.0631713867188 C 74.02481079101563 464.0631713867188 72.40747833251953 463.6908874511719 70.81374359130859 462.986572265625 C 69.17356872558594 462.2616882324219 67.59384155273438 461.1972351074219 66.24533843994141 459.9082336425781 C 64.75942993164063 458.4878540039063 63.57715225219727 456.8379821777344 62.73134231567383 455.0044250488281 C 61.82773971557617 453.0455932617188 61.33805084228516 450.9307861328125 61.27447509765625 448.7145690917969 C 60.49797058105469 448.136474609375 58.70762634277344 446.5801391601563 57.35135269165039 444.4779357910156 C 55.56567001342773 441.7101440429688 55.21586227416992 439.0283508300781 56.32863616943359 436.6931762695313 C 55.01202774047852 435.5685424804688 53.98993301391602 434.2269592285156 53.28718185424805 432.6999816894531 C 52.60227966308594 431.2117614746094 52.23563003540039 429.587646484375 52.19742202758789 427.8727416992188 C 52.11643218994141 424.2374877929688 53.56293106079102 420.57568359375 55.88254928588867 418.5438842773438 L 55.93663024902344 418.4965209960938 L 56.00186157226563 418.46630859375 C 57.82527160644531 417.6217651367188 60.61210250854492 416.614990234375 63.53363037109375 416.614990234375 C 64.33976745605469 416.614990234375 65.12322998046875 416.6925048828125 65.86227416992188 416.8453369140625 C 68.20687103271484 417.3299865722656 70.361328125 418.9434814453125 71.62540435791016 421.1614074707031 C 72.61557769775391 422.8985595703125 72.91595458984375 424.7822875976563 72.42889404296875 426.2004089355469 L 72.11897277832031 427.1047668457031 L 73.06021881103516 426.9349365234375 C 74.18180084228516 426.7332153320313 75.28205108642578 426.6309509277344 76.3306884765625 426.6309509277344 C 80.03899383544922 426.6309509277344 84.9110107421875 427.9291381835938 87.06224822998047 434.1137390136719 L 87.33235168457031 434.8902587890625 L 86.51862335205078 434.7728881835938 C 85.94647979736328 434.6903686523438 85.35411834716797 434.6484985351563 84.75800323486328 434.6484985351563 C 82.78343200683594 434.6484985351563 80.74076843261719 435.1183166503906 79.29389190673828 435.9052429199219 C 75.5343017578125 437.9467468261719 72.606201171875 443.0091857910156 75.06079864501953 449.3002624511719 L 75.22499847412109 449.7210998535156 L 74.82292938232422 449.9270324707031 C 71.99176025390625 451.3770751953125 70.01633453369141 454.2160034179688 69.68138885498047 457.2583312988281 L 70.80460357666016 457.3145141601563 C 71.18584442138672 454.0856323242188 73.65168762207031 451.1981201171875 76.83432006835938 450.3363952636719 C 77.47383117675781 450.1632385253906 78.12441253662109 450.075439453125 78.76801300048828 450.075439453125 C 80.08209228515625 450.075439453125 81.3709716796875 450.4338989257813 82.59883880615234 451.140869140625 C 83.81024932861328 451.8383483886719 84.93483734130859 452.8603820800781 85.94139099121094 454.1785278320313 L 86.17942047119141 454.4902648925781 L 85.933349609375 454.7956848144531 C 83.99105072021484 457.2064208984375 83.31577301025391 460.5222473144531 84.15248107910156 463.3772277832031 L 85.21024322509766 462.9969177246094 C 84.31853485107422 459.8703918457031 85.48219299316406 456.2560424804688 88.08753204345703 454.2349548339844 C 89.41283416748047 453.2059631347656 90.94601440429688 452.6841735839844 92.64430999755859 452.6841735839844 C 94.51948547363281 452.6841735839844 96.54777526855469 453.3484497070313 98.53675079345703 454.6099548339844 L 99.16748046875 453.6807861328125 C 96.97196960449219 452.2802734375 94.72237396240234 451.54248046875 92.63484191894531 451.54248046875 C 90.7086181640625 451.54248046875 88.95088958740234 452.1468200683594 87.41004943847656 453.3388671875 C 87.39719390869141 453.3503112792969 87.38645172119141 453.3595581054688 87.37535095214844 453.3684387207031 L 86.98200225830078 453.68310546875 L 86.67024993896484 453.2874450683594 C 84.43398284912109 450.4490661621094 81.71980285644531 448.9487609863281 78.82115173339844 448.9487609863281 C 78.12056732177734 448.9487609863281 77.40766906738281 449.0389404296875 76.70224761962891 449.2168273925781 L 76.27628326416016 449.32421875 L 76.11494445800781 448.9156188964844 C 75.09220886230469 446.3255004882813 74.99510955810547 443.7645874023438 75.83414459228516 441.509765625 C 76.57040405273438 439.5310974121094 77.98927307128906 437.8909912109375 79.82936859130859 436.8916015625 C 81.12119293212891 436.1897277832031 82.95745849609375 435.7706604003906 84.7413330078125 435.7706604003906 C 86.07370758056641 435.7706604003906 87.36907196044922 436.0007629394531 88.48737335205078 436.4360656738281 L 89.15032196044922 436.6940612792969 L 89.24658966064453 435.9884033203125 C 89.74733734130859 432.3204956054688 92.25581359863281 429.11181640625 95.79309844970703 427.6145629882813 C 97.19818878173828 427.0197448730469 98.69202423095703 426.7181396484375 100.2330627441406 426.7181396484375 C 102.5219879150391 426.7181396484375 104.8958740234375 427.4013061523438 107.0980834960938 428.6937866210938 L 107.3450012207031 428.8387145996094 L 107.3450012207031 429.125 L 107.3450012207031 455.3160095214844 C 107.3450012207031 458.2712707519531 106.933708190918 460.9140930175781 106.1225509643555 463.1710510253906 C 105.3673706054688 465.2722778320313 104.2604446411133 467.0586242675781 102.8325042724609 468.48046875 C 100.2766342163086 471.0254516601563 96.75131988525391 472.3707275390625 92.63812255859375 472.3707275390625 Z"/>
        <path class="cls-5" d="M 63.53363037109375 417.114990234375 C 60.71098327636719 417.114990234375 58.00868988037109 418.0878295898438 56.21199798583984 418.9200134277344 C 52.26300048828125 422.3789978027344 50.55400085449219 431.4410095214844 56.95700073242188 436.5639953613281 C 53.98600006103516 441.9429931640625 60.49600219726563 447.6029968261719 61.76900482177734 448.4530029296875 C 61.90050506591797 457.8895263671875 69.92174530029297 463.5631713867188 75.49088287353516 463.5631713867188 C 75.93497467041016 463.5631713867188 76.36333465576172 463.5271301269531 76.77100372314453 463.4540100097656 C 79.30506896972656 468.3218994140625 86.12933349609375 471.8707275390625 92.63691711425781 471.8707275390625 C 99.94023895263672 471.8707275390625 106.8450012207031 467.4029846191406 106.8450012207031 455.3160095214844 L 106.8450012207031 429.125 C 104.6954040527344 427.8634033203125 102.4343948364258 427.2182006835938 100.2330627441406 427.2181396484375 C 98.77540588378906 427.2181091308594 97.34407043457031 427.5009460449219 95.98800659179688 428.0750122070313 C 92.61199951171875 429.5039978027344 90.21900177001953 432.56201171875 89.74200439453125 436.0559997558594 L 89.55999755859375 437.3900146484375 L 88.30599975585938 436.9020080566406 C 87.16893768310547 436.4593811035156 85.93571472167969 436.2706604003906 84.74132537841797 436.2706604003906 C 82.94307708740234 436.2706604003906 81.23252868652344 436.6982727050781 80.06800079345703 437.3309936523438 C 76.79800415039063 439.1069946289063 74.45999908447266 443.3630065917969 76.58000183105469 448.7319946289063 C 77.33238220214844 448.5422973632813 78.08154296875 448.4487915039063 78.82115173339844 448.4487609863281 C 81.85536956787109 448.4486694335938 84.7337646484375 450.0216369628906 87.06300354003906 452.9779968261719 C 87.072998046875 452.9700012207031 87.08200073242188 452.9609985351563 87.09300231933594 452.9519958496094 C 88.73602294921875 451.67724609375 90.62384033203125 451.0426025390625 92.63484191894531 451.04248046875 C 94.94322204589844 451.0423583984375 97.4140625 451.8783264160156 99.86599731445313 453.5419921875 L 98.67399597167969 455.2980041503906 C 96.60214233398438 453.8924255371094 94.53903198242188 453.1841735839844 92.64430999755859 453.1841735839844 C 91.08404541015625 453.1841735839844 89.63815307617188 453.6640319824219 88.39400482177734 454.6300048828125 C 85.82099914550781 456.6260070800781 84.74500274658203 460.2739868164063 85.83399963378906 463.3039855957031 L 83.83699798583984 464.0220031738281 C 82.69000244140625 460.8340148925781 83.42099761962891 457.1170043945313 85.54399871826172 454.4819946289063 C 83.60031890869141 451.9365539550781 81.227294921875 450.575439453125 78.76801300048828 450.575439453125 C 78.17040252685547 450.575439453125 77.56790924072266 450.65576171875 76.96500396728516 450.8190002441406 C 73.82199859619141 451.6700134277344 71.42400360107422 454.6220092773438 71.26200103759766 457.8380126953125 L 69.14199829101563 457.7319946289063 C 69.31600189208984 454.2730102539063 71.51399993896484 451.0599975585938 74.59500122070313 449.4819946289063 C 72.14199829101563 443.1950073242188 74.84700012207031 437.7510070800781 79.05500030517578 435.4660034179688 C 80.45404815673828 434.7051086425781 82.53111267089844 434.1485290527344 84.75799560546875 434.1485290527344 C 85.36117553710938 434.1484985351563 85.97531127929688 434.1893310546875 86.58998870849609 434.2780151367188 C 84.58077239990234 428.5016479492188 80.11438751220703 427.1309204101563 76.33069610595703 427.1309204101563 C 75.1767578125 427.1309204101563 74.08708953857422 427.2582702636719 73.14900207519531 427.427001953125 L 71.37000274658203 427.7479858398438 L 71.95600128173828 426.0379943847656 C 72.39700317382813 424.7539978027344 72.11100006103516 423.0230102539063 71.19100189208984 421.4089965820313 C 69.99700164794922 419.3139953613281 67.96700286865234 417.7909851074219 65.76100158691406 417.3349914550781 C 65.01975250244141 417.1816711425781 64.27249908447266 417.114990234375 63.53363037109375 417.114990234375 M 63.53363037109375 416.114990234375 C 64.37371826171875 416.114990234375 65.19126129150391 416.1959838867188 65.96353912353516 416.355712890625 C 68.44666290283203 416.8689880371094 70.72567749023438 418.5729675292969 72.05979919433594 420.913818359375 C 73.12003326416016 422.7738647460938 73.43479919433594 424.8108825683594 72.90177154541016 426.3628234863281 L 72.86793518066406 426.4615783691406 L 72.97144317626953 426.4429016113281 C 74.12242126464844 426.2358703613281 75.25246429443359 426.1309204101563 76.33070373535156 426.1309204101563 C 78.73960113525391 426.1309204101563 80.85781097412109 426.649658203125 82.62647247314453 427.6727294921875 C 84.88986206054688 428.98193359375 86.54116058349609 431.09375 87.53447723388672 433.9494934082031 C 87.64917755126953 434.2792358398438 87.58360290527344 434.6449279785156 87.3614501953125 434.9142761230469 C 87.16999053955078 435.1464233398438 86.88608551025391 435.2780456542969 86.59008026123047 435.2780456542969 C 86.54264831542969 435.2780456542969 86.49494171142578 435.274658203125 86.44721221923828 435.2677612304688 C 85.89865112304688 435.1886291503906 85.330322265625 435.1484985351563 84.75798797607422 435.1484985351563 C 82.86304473876953 435.1485290527344 80.90969085693359 435.5956115722656 79.53278350830078 436.344482421875 C 75.95951080322266 438.2848205566406 73.18211364746094 443.1096496582031 75.52660369873047 449.1184997558594 C 75.71311187744141 449.5965270996094 75.50756072998047 450.1381225585938 75.05085754394531 450.3720397949219 C 72.53142547607422 451.6624450683594 70.72719573974609 454.1102294921875 70.25385284423828 456.7863464355469 L 70.37703704833984 456.7925109863281 C 70.63069152832031 455.3678283691406 71.26766967773438 453.9826049804688 72.21949005126953 452.8110656738281 C 73.39034271240234 451.3699645996094 74.98284149169922 450.3197021484375 76.70365142822266 449.853759765625 C 77.3857421875 449.6690673828125 78.08029174804688 449.575439453125 78.76801300048828 449.575439453125 C 80.17078399658203 449.575439453125 81.54360198974609 449.9563293457031 82.84832763671875 450.7075500488281 C 84.11746215820313 451.4382629394531 85.29182434082031 452.5039672851563 86.33879089355469 453.8750915527344 C 86.61829376220703 454.2411499023438 86.61164855957031 454.7507629394531 86.32270050048828 455.109375 C 84.59709930419922 457.2511596679688 83.92542266845703 460.1432495117188 84.49946594238281 462.7211303710938 L 84.61459350585938 462.6797485351563 C 84.30009460449219 461.2674560546875 84.35446166992188 459.7438659667969 84.78163909912109 458.2962341308594 C 85.30715942382813 456.5152893066406 86.37236785888672 454.9326477050781 87.78105926513672 453.8398742675781 C 89.19599151611328 452.7413024902344 90.83232879638672 452.1841735839844 92.64430999755859 452.1841735839844 C 94.48348236083984 452.1841735839844 96.45378875732422 452.7865295410156 98.39113616943359 453.9342041015625 L 98.46036529541016 453.8322143554688 C 96.48690032958984 452.658447265625 94.48933410644531 452.0423889160156 92.6348876953125 452.04248046875 C 90.82720184326172 452.0425720214844 89.17655944824219 452.6085815429688 87.72854614257813 453.7246398925781 C 87.71474456787109 453.7366943359375 87.70138549804688 453.7479248046875 87.68769836425781 453.7588806152344 C 87.50952911376953 453.9013977050781 87.28893280029297 453.9779968261719 87.06301116943359 453.9779968261719 C 87.02504730224609 453.9779968261719 86.98696136474609 453.9758605957031 86.94886779785156 453.9714660644531 C 86.68411254882813 453.9410400390625 86.44242858886719 453.8062133789063 86.27750396728516 453.5968627929688 C 84.13938140869141 450.883056640625 81.56102752685547 449.4486694335938 78.82118988037109 449.4487609863281 C 78.16165924072266 449.4487915039063 77.4898681640625 449.5338745117188 76.82449340820313 449.7016296386719 C 76.74279022216797 449.7222290039063 76.66062927246094 449.7321472167969 76.57962799072266 449.7321472167969 C 76.17754364013672 449.7321472167969 75.80350494384766 449.48828125 75.64987945556641 449.0992736816406 C 74.58109283447266 446.3924865722656 74.48275756835938 443.707763671875 75.36553192138672 441.3353881835938 C 76.14392852783203 439.2434997558594 77.64446258544922 437.50927734375 79.59072875976563 436.4522399902344 C 80.97270965576172 435.7013549804688 82.85008239746094 435.2706604003906 84.7413330078125 435.2706604003906 C 86.15505981445313 435.2706604003906 87.47643280029297 435.5059814453125 88.66875457763672 435.9701232910156 L 88.74063873291016 435.9981079101563 L 88.75118255615234 435.9208068847656 C 89.27567291259766 432.0789489746094 91.8992919921875 428.7197875976563 95.59820556640625 427.1541137695313 C 97.06529235839844 426.5330505371094 98.62461853027344 426.2181396484375 100.2328338623047 426.2181396484375 C 102.6110076904297 426.2182006835938 105.0724029541016 426.9251403808594 107.3511657714844 428.2625732421875 C 107.6570892333984 428.4421081542969 107.8450012207031 428.7702941894531 107.8450012207031 429.125 L 107.8450012207031 455.3160095214844 C 107.8450012207031 458.3290710449219 107.4237899780273 461.0287780761719 106.5930786132813 463.340087890625 C 105.8126602172852 465.5115051269531 104.6661224365234 467.360107421875 103.1852874755859 468.8345947265625 C 100.5334930419922 471.4750366210938 96.88591003417969 472.8707275390625 92.63690948486328 472.8707275390625 C 89.31468963623047 472.8707275390625 85.80254364013672 471.9834594726563 82.74742889404297 470.3723754882813 C 79.89006042480469 468.8655395507813 77.60176849365234 466.8098449707031 76.22996520996094 464.5322570800781 C 75.98827362060547 464.5528259277344 75.74135589599609 464.5631713867188 75.49088287353516 464.5631713867188 C 73.95574188232422 464.5631713867188 72.26852416992188 464.1761169433594 70.61161804199219 463.4438781738281 C 68.91905975341797 462.6958618164063 67.28974914550781 461.5982666015625 65.89984130859375 460.2696533203125 C 64.36833190917969 458.8057250976563 63.14954376220703 457.1047058105469 62.27732086181641 455.2138671875 C 61.37773132324219 453.2637329101563 60.87588500976563 451.1646728515625 60.78312683105469 448.9672546386719 C 59.89852142333984 448.2724304199219 58.22038269042969 446.7472229003906 56.93119812011719 444.7489929199219 C 55.13184356689453 441.9599914550781 54.7210693359375 439.2384033203125 55.72238922119141 436.8250122070313 C 53.19793701171875 434.5330810546875 51.77561187744141 431.3879699707031 51.69754028320313 427.8838806152344 C 51.61338806152344 424.1068115234375 53.12679290771484 420.2930297851563 55.55310821533203 418.1677856445313 C 55.62483978271484 418.1049499511719 55.70519256591797 418.0527038574219 55.79171752929688 418.0126342773438 C 57.66074371337891 417.1469421386719 60.52106475830078 416.114990234375 63.53363037109375 416.114990234375 Z"/>
      </g>
    </g>
  </g>
</svg>
