<svg xmlns="http://www.w3.org/2000/svg" width="128" height="129" viewBox="0 0 128 129">
  <defs>
    <style>
      .cls-1 {
        fill: #fdb400;
      }

      .cls-2 {
        fill: #fd7700;
      }

      .cls-3 {
        fill: #fff;
      }

      .cls-4 {
        fill: #3a52f0;
      }
    </style>
  </defs>
  <g id="Group_4" data-name="Group 4" transform="translate(-178.252 -41.833)">
    <path id="Path_6" data-name="Path 6" class="cls-1" d="M276.752,106.833a34.353,34.353,0,0,1-10.74,25l-.041.04c-3.539,3.65-4.769,9.2-4.6,15.91a7.3,7.3,0,0,1-7.3,7.3h-23.64a7.3,7.3,0,0,1-7.3-7.3c.27-6.64-.69-11.83-3.48-14.89a.42.42,0,0,1-.07-.07,9.277,9.277,0,0,0-1.09-.99,34.5,34.5,0,1,1,58.26-25Z"/>
    <g id="Group_1" data-name="Group 1">
      <path id="Path_7" data-name="Path 7" class="cls-1" d="M241.5,65s-12.5-23.167,0-23.167S241.5,65,241.5,65Z"/>
      <path id="Path_8" data-name="Path 8" class="cls-1" d="M283.085,106.583s23.167-12.5,23.167,0S283.085,106.583,283.085,106.583Z"/>
      <path id="Path_9" data-name="Path 9" class="cls-1" d="M271.478,77.107s7.542-25.22,16.381-16.381S271.478,77.107,271.478,77.107Z"/>
      <path id="Path_10" data-name="Path 10" class="cls-1" d="M213.025,77.107s-25.22-7.542-16.381-16.381S213.025,77.107,213.025,77.107Z"/>
      <path id="Path_11" data-name="Path 11" class="cls-1" d="M201.418,106.583s-23.166-12.5-23.166,0S201.418,106.583,201.418,106.583Z"/>
    </g>
    <path id="Path_12" data-name="Path 12" class="cls-2" d="M276.752,106.833a34.353,34.353,0,0,1-10.74,25l-.04.04c-3.54,3.65-4.77,9.2-4.6,15.91a7.3,7.3,0,0,1-7.3,7.3h-11.82V72.333A34.506,34.506,0,0,1,276.752,106.833Z"/>
    <g id="Group_3" data-name="Group 3">
      <g id="Group_2" data-name="Group 2">
        <path id="Path_13" data-name="Path 13" class="cls-3" d="M260.5,107.833a18.28,18.28,0,0,1-14.75,17.91v28.34a3.5,3.5,0,1,1-7,0v-28.34A18.289,18.289,0,0,1,224,107.833a3.5,3.5,0,1,1,7,0,11.25,11.25,0,0,0,22.5,0,3.5,3.5,0,1,1,7,0Z"/>
      </g>
    </g>
    <path id="Rectangle_6" data-name="Rectangle 6" class="cls-4" d="M0,0H29a0,0,0,0,1,0,0V6.438a9.938,9.938,0,0,1-9.937,9.938H9.938A9.938,9.938,0,0,1,0,6.438V0A0,0,0,0,1,0,0Z" transform="translate(227.752 154.458)"/>
  </g>
</svg>
