<svg xmlns="http://www.w3.org/2000/svg" width="127.946" height="126.5" viewBox="0 0 127.946 126.5">
  <defs>
    <style>
      .cls-1 {
        fill: #fd7700;
      }

      .cls-2 {
        fill: #fdb400;
      }
    </style>
  </defs>
  <g id="Group_10" data-name="Group 10" transform="translate(-38.833 -50.458)">
    <rect id="Rectangle_7" data-name="Rectangle 7" class="cls-1" width="22" height="17.75" transform="translate(91.806 129.125)"/>
    <path id="Rectangle_8" data-name="Rectangle 8" class="cls-2" d="M15.541,0H37.459A15.541,15.541,0,0,1,53,15.541V23.75a0,0,0,0,1,0,0H0a0,0,0,0,1,0,0V15.541A15.541,15.541,0,0,1,15.541,0Z" transform="translate(76.306 146.875)"/>
    <g id="Group_7" data-name="Group 7">
      <g id="Group_5" data-name="Group 5">
        <path id="Path_14" data-name="Path 14" class="cls-1" d="M129.7,119.471a3.5,3.5,0,0,1-.983-6.86c15.691-4.6,25.6-13.369,29.444-26.058a40.515,40.515,0,0,0,1.545-14.926h-17.66a3.5,3.5,0,0,1,0-7h20.719a3.5,3.5,0,0,1,3.422,2.768c.083.39,7.856,39.218-35.5,51.933A3.487,3.487,0,0,1,129.7,119.471Z"/>
      </g>
      <g id="Group_6" data-name="Group 6">
        <path id="Path_15" data-name="Path 15" class="cls-1" d="M75.911,119.471a3.486,3.486,0,0,1-.987-.143c-43.355-12.715-35.582-51.543-35.5-51.933a3.5,3.5,0,0,1,3.423-2.768H63.565a3.5,3.5,0,1,1,0,7H45.888c-.747,8.164-.069,31.87,31.007,40.984a3.5,3.5,0,0,1-.984,6.86Z"/>
      </g>
    </g>
    <g id="Group_8" data-name="Group 8">
      <path id="Path_16" data-name="Path 16" class="cls-1" d="M132.174,176.958H73.438a3.5,3.5,0,0,1,0-7h58.736a3.5,3.5,0,0,1,0,7Z"/>
    </g>
    <path id="Path_17" data-name="Path 17" class="cls-2" d="M102.806,132.625c-44.5,0-40.5-75.67-40.5-75.67h81S147.306,132.625,102.806,132.625Z"/>
    <path id="Path_18" data-name="Path 18" class="cls-1" d="M103.879,67.362,109.9,79.573a1.2,1.2,0,0,0,.9.655l13.476,1.958a1.2,1.2,0,0,1,.663,2.04l-9.751,9.505a1.2,1.2,0,0,0-.344,1.059l2.3,13.421a1.2,1.2,0,0,1-1.736,1.261l-12.053-6.337a1.2,1.2,0,0,0-1.113,0L90.2,109.472a1.2,1.2,0,0,1-1.736-1.261l2.3-13.421a1.2,1.2,0,0,0-.344-1.059l-9.751-9.505a1.2,1.2,0,0,1,.663-2.04l13.476-1.958a1.2,1.2,0,0,0,.9-.655l6.027-12.211A1.2,1.2,0,0,1,103.879,67.362Z"/>
    <g id="Group_9" data-name="Group 9">
      <path id="Path_19" data-name="Path 19" class="cls-1" d="M147.473,57.458H58.14a3.5,3.5,0,0,1,0-7h89.333a3.5,3.5,0,0,1,0,7Z"/>
    </g>
  </g>
</svg>
