<svg xmlns="http://www.w3.org/2000/svg" width="91.333" height="127.773" viewBox="0 0 91.333 127.773">
  <defs>
    <style>
      .cls-1 {
        fill: #3a52f0;
      }

      .cls-2 {
        fill: #8997f6;
      }

      .cls-3 {
        fill: #fd7700;
      }

      .cls-4 {
        fill: #fdb400;
      }
    </style>
  </defs>
  <g id="Group_14" data-name="Group 14" transform="translate(-54.64 -203.227)">
    <g id="Group_11" data-name="Group 11">
      <path id="Path_20" data-name="Path 20" class="cls-1" d="M134.306,276.893V319.3a2.935,2.935,0,0,1-4.29,2.61l-14.96-7.77v-37.25Z"/>
      <path id="Path_21" data-name="Path 21" class="cls-1" d="M66.306,276.893V319.3a2.935,2.935,0,0,0,4.29,2.61l14.96-7.77v-37.25Z"/>
      <path id="Path_22" data-name="Path 22" class="cls-2" d="M119.806,285.643v42.41a2.935,2.935,0,0,1-4.29,2.61l-14.96-7.77v-37.25Z"/>
      <path id="Path_23" data-name="Path 23" class="cls-2" d="M100.556,285.643v37.25l-14.96,7.77a2.935,2.935,0,0,1-4.29-2.61v-42.41Z"/>
    </g>
    <g id="Group_13" data-name="Group 13">
      <circle id="Ellipse_1" data-name="Ellipse 1" class="cls-3" cx="45.667" cy="45.667" r="45.667" transform="translate(54.64 203.227)"/>
      <circle id="Ellipse_2" data-name="Ellipse 2" class="cls-4" cx="28.333" cy="28.333" r="28.333" transform="translate(71.973 220.56)"/>
      <g id="Group_12" data-name="Group 12">
        <path id="Path_24" data-name="Path 24" class="cls-3" d="M101.14,265.227a3.5,3.5,0,0,1-3.5-3.5V244.51l-2.526,2.525a3.5,3.5,0,0,1-4.949-4.95l8.5-8.5a3.5,3.5,0,0,1,5.975,2.475v25.667A3.5,3.5,0,0,1,101.14,265.227Z"/>
      </g>
    </g>
  </g>
</svg>
