<svg xmlns="http://www.w3.org/2000/svg" width="208.3" height="16" viewBox="0 0 208.3 16">
  <g id="logo_text" data-name="logo text" transform="translate(-80 -76)">
    <g id="XMLID_660_">
      <path id="XMLID_664_" d="M227.2,79.9H224v12h11.4V89.2h-8.2Z" fill="#d23d5d"/>
      <rect id="XMLID_663_" width="3.2" height="12" transform="translate(244.3 79.9)" fill="#d23d5d"/>
      <path id="XMLID_662_" d="M262.2,89l-3-9.1h-3.3l4.1,12h4.4l4-12h-3.2Z" fill="#d23d5d"/>
      <path id="XMLID_661_" d="M288.3,82.5V79.9H276.9v12h11.4V89.2h-8.2v-2h8.2V84.6h-8.2V82.5Z" fill="#d23d5d"/>
    </g>
    <g id="XMLID_652_">
      <path id="XMLID_659_" d="M101.6,76,96.1,92h4.3l4.1-12.1L108.6,92h4.3l-5.5-16Z" fill="#fff"/>
      <path id="XMLID_658_" d="M127.4,85.9,119.2,76h-4.4V92h4.3V82.1l8.3,9.9h4.3V76h-4.3Z" fill="#fff"/>
      <path id="XMLID_657_" d="M137.5,76.4a5.244,5.244,0,0,0-1.8,1,3.553,3.553,0,0,0-1.1,1.6,5.087,5.087,0,0,0-.4,2.2v5.5a5.087,5.087,0,0,0,.4,2.2,3.978,3.978,0,0,0,1.2,1.6,5.244,5.244,0,0,0,1.8,1,8.017,8.017,0,0,0,2.3.3h11.3v-9h-4.3v5.5h-6.3a2.07,2.07,0,0,1-1.5-.5,1.721,1.721,0,0,1-.5-1.5V81.1a1.771,1.771,0,0,1,2-1.7h10.6V76H139.9a5.748,5.748,0,0,0-2.4.4" fill="#fff"/>
      <path id="XMLID_656_" d="M158.5,76,153,92h4.3l4.1-12.1L165.5,92h4.3l-5.5-16Z" fill="#fff"/>
      <path id="XMLID_655_" d="M182.9,86l-6-10h-5.2V92H176V82.1l5.9,9.9h1.9l6-9.9V92h4.3V76h-5.2Z" fill="#fff"/>
      <path id="XMLID_654_" d="M211.8,79.6V76H196.5V92h15.3V88.4h-11V85.8h11V82.2h-11V79.6Z" fill="#fff"/>
      <path id="XMLID_653_" d="M80,76V92h4.3V85.8h11V82.2h-11V79.6h11V76H80Z" fill="#fff"/>
    </g>
    <circle id="XMLID_173_" cx="2" cy="2" r="2" transform="translate(216 87.9)" fill="#d23d5d"/>
  </g>
</svg>
