<svg xmlns="http://www.w3.org/2000/svg" xmlns:xlink="http://www.w3.org/1999/xlink" width="96" height="98" viewBox="0 0 96 98">
  <defs>
    <style>
      .cls-1 {
        fill: url(#linear-gradient);
      }

      .cls-2, .cls-3 {
        fill: #fea900;
      }

      .cls-2 {
        font-size: 11px;
        font-family: Adelle-Regular, Adelle;
      }

      .cls-4 {
        fill: #fff;
      }
    </style>
    <linearGradient id="linear-gradient" x1="0.5" x2="0.5" y2="1" gradientUnits="objectBoundingBox">
      <stop offset="0" stop-color="#102f54"/>
      <stop offset="1" stop-color="#030911"/>
    </linearGradient>
  </defs>
  <g id="Group_156" data-name="Group 156" transform="translate(0 0.19)">
    <rect id="Rectangle_141" data-name="Rectangle 141" class="cls-1" width="96" height="98" rx="16" transform="translate(0 -0.19)"/>
    <text id="Safe_Secure" data-name="Safe &amp;
 Secure" class="cls-2" transform="translate(45 71.81)"><tspan x="-16.115" y="0">Safe &amp;</tspan><tspan x="-18.491" y="14" xml:space="preserve"> Secure</tspan></text>
    <g id="Group_153" data-name="Group 153" transform="translate(28.333 15.908)">
      <path id="Path_65" data-name="Path 65" class="cls-3" d="M895.586,339.6c-.008,5.751-1.461,24.739-19.793,31.895-18.295-7.141-19.781-26.067-19.793-31.86l19.822-11.564,19.716,11.5Z" transform="translate(-856 -328.07)"/>
      <path id="Path_66" data-name="Path 66" class="cls-4" d="M902.939,353.441c-.006,4.71-1.2,20.259-16.208,26.119-14.981-5.847-16.2-21.347-16.208-26.09L886.754,344l16.146,9.419Z" transform="translate(-866.938 -340.068)"/>
      <g id="Group_152" data-name="Group 152" transform="translate(12.494 10.596)">
        <g id="Group_150" data-name="Group 150" transform="translate(0 0)">
          <rect id="Rectangle_157" data-name="Rectangle 157" class="cls-3" width="14.598" height="14.598" rx="7.299" transform="translate(0 8.11)"/>
          <path id="Path_67" data-name="Path 67" class="cls-3" d="M926.137,375.9v4.832H923.89v-4.848a2.654,2.654,0,0,0-5.308,0v4.848h-2.246V375.9a4.9,4.9,0,0,1,9.8,0Z" transform="translate(-913.937 -371)"/>
        </g>
        <g id="Group_151" data-name="Group 151" transform="translate(5.677 12.165)">
          <rect id="Rectangle_158" data-name="Rectangle 158" class="cls-4" width="2.027" height="4.866" transform="translate(0.608 1.622)"/>
          <circle id="Ellipse_37" data-name="Ellipse 37" class="cls-4" cx="1.622" cy="1.622" r="1.622"/>
        </g>
      </g>
    </g>
  </g>
</svg>
